#!OML:ASF E:\Steps\Project 1\Capture day 1\Session 2\Subject.ASF
:FULLY-SPECIFIED
:DEGREES
391
root 9.88176 16.1696 16.1521 -157.214 -0.533219 179.327
lowerback -23.4911 -0.485318 -4.90842
upperback 1.95455 0.715884 -0.306907
thorax 15.5104 -0.12504 2.7096
lowerneck -5.32882 -0.929404 0.121277
upperneck 17.342 -2.37531 1.52405
head 6.14472 -1.34744 0.265544
rclavicle -5.46658e-015 2.56432e-014
rhumerus -31.8265 -13.0913 -79.5662
rradius 42.5848
rwrist -5.93025
rhand -8.36083 -52.4364
rfingers 7.12502
rthumb 17.5616 278.337
lclavicle -5.46658e-015 2.56432e-014
lhumerus -36.3647 6.3797 79.4948
lradius 30.9579
lwrist -1.59529
lhand -20.439 -13.0283
lfingers 7.12502
lthumb 5.91604 16.8691
rfemur -18.8066 5.43508 22.7374
rtibia 8.62497
rfoot -21.1476 -4.5162
rtoes -28.2665
lfemur -49.4526 -6.97002 -15.2373
ltibia 32.1685
lfoot -5.87732 9.09428
ltoes -32.7558
392
root 9.88735 16.156 16.0472 -157.139 -0.526826 179.39
lowerback -23.4733 -0.442678 -4.8767
upperback 1.84005 0.756134 -0.343336
thorax 15.3583 -0.0992279 2.6623
lowerneck -5.27378 -0.836611 0.07045
upperneck 17.5398 -2.28039 1.57425
head 6.19801 -1.30953 0.294923
rclavicle -4.77083e-015 3.97569e-015
rhumerus -31.7968 -12.5835 -79.6979
rradius 43.034
rwrist -6.02069
rhand -8.31318 -52.9139
rfingers 7.12502
rthumb 17.6075 277.863
lclavicle -4.77083e-015 3.97569e-015
lhumerus -36.574 6.6423 79.2277
lradius 30.6958
lwrist -1.67657
lhand -20.3084 -13.0973
lfingers 7.12502
lthumb 6.04208 16.7965
rfemur -18.5395 5.52135 22.859
rtibia 8.80244
rfoot -21.5671 -4.57094
rtoes -27.6094
lfemur -49.2166 -7.3755 -14.6299
ltibia 29.0993
lfoot -5.34273 8.85123
ltoes -35.3885
393
root 9.8935 16.1381 15.9425 -156.987 -0.51058 179.593
lowerback -23.5121 -0.335029 -4.71564
upperback 1.66982 0.840907 -0.361974
thorax 15.1693 -0.0434783 2.57755
lowerneck -4.96917 -0.74674 0.0822357
upperneck 17.5693 -2.18548 1.60128
head 6.15369 -1.27183 0.309629
rclavicle -1.03368e-014 7.15625e-015
rhumerus -31.8398 -12.3172 -79.7642
rradius 43.3889
rwrist -6.08743
rhand -8.19343 -53.5869
rfingers 7.12502
rthumb 17.7227 277.201
lclavicle -1.03368e-014 7.15625e-015
lhumerus -36.8 6.91466 78.9209
lradius 30.3823
lwrist -1.88759
lhand -20.2585 -12.8347
lfingers 7.12502
lthumb 6.09027 17.0578
rfemur -18.331 5.599 23.128
rtibia 8.88284
rfoot -21.8386 -4.3993
rtoes -26.2964
lfemur -49.0311 -7.73915 -13.8004
ltibia 26.0452
lfoot -4.9612 8.55794
ltoes -36.5504
394
root 9.89667 16.1208 15.8336 -156.951 -0.462043 179.71
lowerback -23.5242 -0.219253 -4.6083
upperback 1.57886 0.965044 -0.434543
thorax 15.0591 0.0264238 2.47548
lowerneck -4.86732 -0.73122 0.081363
upperneck 17.6629 -2.19365 1.66099
head 6.16639 -1.27812 0.327878
rclavicle 1.59028e-015 -1.82882e-014
rhumerus -31.8634 -12.3142 -79.8195
rradius 43.7355
rwrist -5.8811
rhand -7.80938 -53.8909
rfingers 7.12502
rthumb 18.0922 276.931
lclavicle 1.59028e-015 -1.82882e-014
lhumerus -36.903 7.10306 78.6001
lradius 29.9819
lwrist -2.12593
lhand -20.4089 -12.8059
lfingers 7.12502
lthumb 5.94504 17.0907
rfemur -18.0113 5.40436 23.3441
rtibia 9.00861
rfoot -22.0533 -4.10351
rtoes -25.8098
lfemur -48.6679 -8.22041 -13.0515
ltibia 23.1482
lfoot -4.83558 8.19846
ltoes -35.9582
395
root 9.89887 16.1038 15.7238 -156.963 -0.398637 179.778
lowerback -23.8392 -0.189897 -4.6217
upperback 1.75099 1.0415 -0.443419
thorax 15.4451 0.0497077 2.50625
lowerneck -5.11541 -0.751605 0.0964444
upperneck 17.7071 -2.19508 1.56971
head 6.22242 -1.27667 0.294621
rclavicle -9.93923e-015 -1.51076e-014
rhumerus -31.3831 -12.201 -79.9202
rradius 43.8799
rwrist -5.76926
rhand -7.16348 -53.4501
rfingers 7.12502
rthumb 18.7136 277.43
lclavicle -9.93923e-015 -1.51076e-014
lhumerus -36.5995 7.51129 78.3966
lradius 29.4985
lwrist -2.3203
lhand -20.4868 -13.0912
lfingers 7.12502
lthumb 5.86982 16.8075
rfemur -17.6448 5.22319 23.5254
rtibia 9.17161
rfoot -22.3704 -4.03969
rtoes -26.6655
lfemur -48.3196 -8.78817 -12.3269
ltibia 20.5489
lfoot -4.64953 7.89099
ltoes -36.3321
396
root 9.90006 16.0866 15.6139 -156.957 -0.373002 179.87
lowerback -23.868 -0.171598 -4.65921
upperback 1.74513 1.07119 -0.395474
thorax 15.4509 0.0569104 2.59466
lowerneck -5.02331 -0.716944 0.11001
upperneck 17.5778 -2.12466 1.51081
head 6.16399 -1.24388 0.280327
rclavicle -2.5842e-015 1.03368e-014
rhumerus -31.2082 -11.7384 -79.9786
rradius 44.0208
rwrist -6.2133
rhand -7.716 -52.8601
rfingers 7.12502
rthumb 18.1821 277.97
lclavicle -2.5842e-015 1.03368e-014
lhumerus -36.6262 7.93746 78.2191
lradius 29.1193
lwrist -2.25982
lhand -20.1243 -13.5196
lfingers 7.12502
lthumb 6.21985 16.3691
rfemur -17.2845 5.1408 23.7348
rtibia 9.33141
rfoot -22.7102 -4.1785
rtoes -28.451
lfemur -48.0229 -9.29913 -11.6202
ltibia 18.0919
lfoot -4.38138 7.58903
ltoes -37.3851
397
root 9.90047 16.0685 15.5002 -157.007 -0.361535 179.905
lowerback -24.1307 -0.151314 -4.71512
upperback 1.89765 1.13835 -0.363654
thorax 15.7834 0.070981 2.69419
lowerneck -4.64494 -0.702216 -0.017241
upperneck 16.97 -2.05625 1.66858
head 5.90863 -1.19778 0.363263
rclavicle 1.78906e-015 3.97569e-015
rhumerus -30.7808 -11.4048 -80.0046
rradius 44.3819
rwrist -6.24139
rhand -7.67911 -53.6386
rfingers 7.12502
rthumb 18.2176 277.195
lclavicle 1.78906e-015 3.97569e-015
lhumerus -36.4426 8.25523 78.161
lradius 28.8055
lwrist -2.10136
lhand -19.7271 -13.4915
lfingers 7.12502
lthumb 6.60325 16.3855
rfemur -16.8644 5.15254 23.8639
rtibia 9.5421
rfoot -23.0177 -4.37986
rtoes -29.6257
lfemur -47.5882 -9.8877 -10.9765
ltibia 15.6162
lfoot -4.1805 7.32814
ltoes -37.146
398
root 9.90099 16.0501 15.3875 -157.099 -0.305073 179.931
lowerback -23.6772 -0.062748 -4.60422
upperback 1.65006 1.19506 -0.498874
thorax 15.2177 0.128539 2.48377
lowerneck -4.86945 -0.678043 -0.176084
upperneck 17.7134 -2.1321 1.87349
head 6.18649 -1.24988 0.44185
rclavicle 2.88238e-015 -1.59028e-015
rhumerus -31.0528 -11.2884 -80.1078
rradius 44.4742
rwrist -6.28671
rhand -7.07742 -53.0761
rfingers 7.12502
rthumb 18.7964 277.812
lclavicle 2.88238e-015 -1.59028e-015
lhumerus -36.966 8.31676 77.7436
lradius 28.5381
lwrist -2.13928
lhand -19.5989 -13.218
lfingers 7.12502
lthumb 6.72698 16.6552
rfemur -16.3843 5.25328 23.9552
rtibia 9.76924
rfoot -23.3577 -4.44118
rtoes -29.4093
lfemur -47.1464 -10.3856 -10.4474
ltibia 13.447
lfoot -3.98273 7.01985
ltoes -37.126
399
root 9.90244 16.0333 15.2734 -157.135 -0.18052 179.875
lowerback -23.3664 -0.00376623 -4.69372
upperback 1.47946 1.27984 -0.612315
thorax 14.8261 0.174746 2.42703
lowerneck -5.13197 -0.670288 -0.100324
upperneck 18.1573 -2.15452 1.75622
head 6.37157 -1.27159 0.385263
rclavicle -1.2424e-014 1.59028e-015
rhumerus -31.2243 -11.1989 -80.2007
rradius 44.6814
rwrist -6.15133
rhand -8.94463 -51.111
rfingers 7.12502
rthumb 16.9997 279.613
lclavicle -1.2424e-014 1.59028e-015
lhumerus -37.2604 8.60044 77.34
lradius 28.1669
lwrist -2.40943
lhand -19.7626 -13.3457
lfingers 7.12502
lthumb 6.56902 16.5325
rfemur -16.0246 5.25537 23.9361
rtibia 10.1581
rfoot -23.7258 -4.36178
rtoes -28.8931
lfemur -46.8785 -10.6698 -10.1863
ltibia 11.8145
lfoot -3.75398 6.79479
ltoes -38.8191
400
root 9.90416 16.0168 15.1522 -157.127 0.0332531 179.692
lowerback -23.8478 0.00199055 -5.08835
upperback 1.59941 1.44059 -0.656101
thorax 15.2316 0.201786 2.66854
lowerneck -4.97613 -0.647272 -0.177847
upperneck 17.9914 -2.10075 1.77234
head 6.29175 -1.24768 0.409453
rclavicle 2.06736e-014 2.38542e-014
rhumerus -31.0665 -11.0789 -80.1658
rradius 44.8982
rwrist -6.00537
rhand -8.33205 -53.2309
rfingers 7.12502
rthumb 17.5893 277.545
lclavicle 2.06736e-014 2.38542e-014
lhumerus -37.1752 8.9208 77.2218
lradius 27.8754
lwrist -2.60041
lhand -19.8726 -13.3405
lfingers 7.12502
lthumb 6.46285 16.5409
rfemur -15.8654 5.30934 23.7241
rtibia 10.8575
rfoot -24.3352 -4.43415
rtoes -29.0653
lfemur -46.6675 -11.1359 -9.94231
ltibia 10.4664
lfoot -3.6411 7.19914
ltoes -39.825
